Results
version=1
nRows=14
nColumns=24
inDegrees=yes
endheader
time	pelvis_tilt	pelvis_list	pelvis_rotation	pelvis_tx	pelvis_ty	pelvis_tz	hip_flexion_r	hip_adduction_r	hip_rotation_r	knee_angle_r	ankle_angle_r	subtalar_angle_r	mtp_angle_r	hip_flexion_l	hip_adduction_l	hip_rotation_l	knee_angle_l	ankle_angle_l	subtalar_angle_l	mtp_angle_l	lumbar_extension	lumbar_bending	lumbar_rotation
      0.43300000	     -6.79730237	      3.59656664	      0.93247714	     -0.82057120	      1.02200082	      0.29925016	     36.82755155	     -2.87574400	     -1.29660176	     -6.77901334	      7.40189397	     -5.50519517	     11.38400243	    -13.76168449	      4.93812316	     10.81118259	     -0.11341250	     13.68943615	     -1.99918860	      5.33354031	    -11.84803567	     -3.15094484	     -4.54618912
      0.43716667	     -6.79930193	      3.64671129	      1.06767167	     -0.81447239	      1.02102946	      0.29934301	     36.74820308	     -2.92611931	     -1.06266306	     -7.13335049	      7.38609647	     -5.62010067	     11.37364518	    -13.88637488	      4.96758325	     10.75272348	     -0.61369541	     13.86244557	     -1.67928820	      5.40021479	    -11.83314043	     -3.07279643	     -4.65391868
      0.44133333	     -6.82719109	      3.69172226	      1.20699852	     -0.80829898	      1.02006518	      0.29943792	     36.67959027	     -2.97370346	     -0.84749427	     -7.49101832	      7.33577052	     -5.72202103	     11.37602255	    -13.95440923	      4.99182499	     10.64177922	     -1.18277929	     14.07485041	     -1.23859268	      5.51006245	    -11.77653836	     -3.00077666	     -4.69232548
      0.44550000	     -6.83375045	      3.72924279	      1.35000620	     -0.80209617	      1.01918686	      0.29952922	     36.57256469	     -3.01780168	     -0.65764385	     -7.84640855	      7.24850709	     -5.81967841	     11.39095889	    -14.02575244	      5.00579336	     10.49907832	     -1.79702459	     14.26785773	     -0.76139303	      5.65794285	    -11.74435848	     -2.91049907	     -4.76400195
      0.44966667	     -6.85419409	      3.76939890	      1.48631465	     -0.79586649	      1.01833185	      0.29963814	     36.47610204	     -3.06054964	     -0.48222796	     -8.21373475	      7.11014234	     -5.92274830	     11.42072597	    -14.05483414	      5.02364949	     10.32002406	     -2.46676873	     14.46619267	     -0.22703185	      5.84713926	    -11.69121423	     -2.82692371	     -4.79661134
      0.45383333	     -6.87547967	      3.80049723	      1.62823679	     -0.78959149	      1.01754078	      0.29974854	     36.36442559	     -3.09906708	     -0.33736027	     -8.57203257	      6.92045600	     -6.02800208	     11.46163807	    -14.05553763	      5.02869251	     10.09453945	     -3.19381934	     14.65032893	      0.36183286	      6.06857313	    -11.63276895	     -2.72595101	     -4.85344935
      0.45800000	     -6.91386316	      3.82988309	      1.77262270	     -0.78328446	      1.01678714	      0.29985477	     36.26193574	     -3.13904287	     -0.21406714	     -8.92731635	      6.67137852	     -6.15125639	     11.51254744	    -14.00182547	      5.03178703	      9.81843745	     -3.99822756	     14.83967196	      1.02826467	      6.32103478	    -11.54982283	     -2.62675328	     -4.88311415
      0.46216667	     -6.92894826	      3.84877254	      1.89829144	     -0.77696522	      1.01612064	      0.29999560	     36.13639946	     -3.16095275	     -0.11838873	     -9.29149263	      6.35393707	     -6.27959385	     11.57878218	    -13.94619660	      5.02276393	      9.45992243	     -4.85325727	     15.01796092	      1.77866811	      6.63776176	    -11.50031520	     -2.50439981	     -4.91299604
      0.46633333	     -6.93772912	      3.86668930	      2.02110062	     -0.77061693	      1.01554345	      0.30015353	     35.99452491	     -3.18281763	     -0.04451760	     -9.64294527	      5.99279420	     -6.38108167	     11.68563899	    -13.86366534	      5.00872711	      9.04905304	     -5.77411084	     15.16881388	      2.59203308	      7.12266869	    -11.45805177	     -2.39691226	     -4.90851168
      0.47050000	     -7.01919607	      3.87409627	      2.16145466	     -0.76423269	      1.01491545	      0.30028599	     35.93112024	     -3.20566936	     -0.00373672	    -10.01045906	      5.58350826	     -6.57914724	     11.75026327	    -13.67522648	      4.98128917	      8.69074928	     -6.75374687	     15.27326131	      3.30684646	      7.44966710	    -11.29390020	     -2.25896493	     -4.94326527
      0.47466667	     -7.04024531	      3.86545880	      2.27766943	     -0.75786299	      1.01445657	      0.30047125	     35.80714779	     -3.20421159	      0.00570662	    -10.37960562	      5.11432035	     -6.73938168	     11.82505916	    -13.49952397	      4.92945574	      8.16054153	     -7.83056140	     15.41640731	      4.27311833	      7.85454857	    -11.23461821	     -2.10975897	     -4.92459339
      0.47883333	     -7.03985021	      3.86166674	      2.37990865	     -0.75151424	      1.01409676	      0.30069877	     35.66763552	     -3.20163863	      0.01863895	    -10.75729273	      4.60741861	     -6.88999265	     11.93181198	    -13.31831050	      4.87580359	      7.60217749	     -8.95338217	     15.48800812	      5.24450972	      8.46621866	    -11.20937767	     -1.97812518	     -4.90700283
      0.48300000	     -7.10378041	      3.83849824	      2.47773219	     -0.74511504	      1.01370013	      0.30093294	     35.61707814	     -3.18248095	     -0.01247855	    -11.18572038	      4.06725998	     -7.09632511	     12.00879760	    -13.03471379	      4.79997544	      7.03672488	    -10.14451544	     15.53375022	      6.18104481	      8.99904692	    -11.08600270	     -1.80184811	     -4.88656280
      0.48716667	     -7.14075221	      3.79680648	      2.57805447	     -0.73872555	      1.01343394	      0.30117887	     35.53330865	     -3.15125882	     -0.06919312	    -11.60462504	      3.51230475	     -7.28279499	     12.08081398	    -12.74297980	      4.69080602	      6.42805367	    -11.40463488	     15.53101832	      7.16625653	      9.58342251	    -10.99110465	     -1.62420977	     -4.84116684
